<svg width="256" height="256" viewBox="0 0 256 256" fill="none" xmlns="http://www.w3.org/2000/svg">
<g clip-path="url(#clip0_668_747)">
<g filter="url(#filter0_d_668_747)">
<circle cx="205.681" cy="131.9" r="12.9" fill="#2B2F29"/>
<ellipse cx="127.798" cy="107.875" rx="10.8304" ry="11.5093" fill="#2B2F29"/>
<circle cx="149.002" cy="191.595" r="12.9" fill="#2B2F29"/>
<circle cx="94.8497" cy="57.0891" r="12.9" fill="#2B2F29"/>
<path d="M33.9668 123.131C26.1462 120.904 23.6469 110.992 29.372 104.908L82.8135 48.1164C88.7729 41.7833 99.0922 44.3289 101.19 52.6495L120.751 130.228C122.849 138.549 115.11 146.236 106.969 143.918L33.9668 123.131Z" fill="url(#paint0_linear_668_747)"/>
<path d="M123.728 118.665C121.604 110.241 128.858 102.533 136.785 104.79L209.831 125.589C217.758 127.847 220.413 138.376 214.61 144.543L161.137 201.368C155.334 207.535 145.425 204.714 143.301 196.29L123.728 118.665Z" fill="url(#paint1_linear_668_747)"/>
<line y1="-2.95" x2="140.937" y2="-2.95" transform="matrix(0.244492 0.969651 -0.96177 0.27386 101.445 54.8887)" stroke="#2B2F29" stroke-width="5.9"/>
<line y1="-2.95" x2="79.766" y2="-2.95" transform="matrix(0.96177 0.27386 -0.244492 0.969651 129.965 102.886)" stroke="#2B2F29" stroke-width="5.9"/>
<path d="M120.81 100.127L145.178 41.9846L156.008 48.6295L120.81 100.127Z" fill="#2B2F29"/>
</g>
</g>
<defs>
<filter id="filter0_d_668_747" x="22.2477" y="41.9846" width="200.333" height="170.709" filterUnits="userSpaceOnUse" color-interpolation-filters="sRGB">
<feFlood flood-opacity="0" result="BackgroundImageFix"/>
<feColorMatrix in="SourceAlpha" type="matrix" values="0 0 0 0 0 0 0 0 0 0 0 0 0 0 0 0 0 0 127 0" result="hardAlpha"/>
<feOffset dy="4"/>
<feGaussianBlur stdDeviation="2"/>
<feComposite in2="hardAlpha" operator="out"/>
<feColorMatrix type="matrix" values="0 0 0 0 0 0 0 0 0 0 0 0 0 0 0 0 0 0 0.25 0"/>
<feBlend mode="normal" in2="BackgroundImageFix" result="effect1_dropShadow_668_747"/>
<feBlend mode="normal" in="SourceGraphic" in2="effect1_dropShadow_668_747" result="shape"/>
</filter>
<linearGradient id="paint0_linear_668_747" x1="61.372" y1="77.1824" x2="115.208" y2="131.461" gradientUnits="userSpaceOnUse">
<stop stop-color="#FF71AC"/>
<stop offset="1" stop-color="#FF4466"/>
</linearGradient>
<linearGradient id="paint1_linear_668_747" x1="123.686" y1="117.85" x2="184.466" y2="167.895" gradientUnits="userSpaceOnUse">
<stop stop-color="#FFD80B"/>
<stop offset="1" stop-color="#FCB836"/>
</linearGradient>
<clipPath id="clip0_668_747">
<rect width="256" height="256" fill="white"/>
</clipPath>
</defs>
</svg>
